<svg width="22" height="22" viewBox="0 0 22 22" fill="none" xmlns="http://www.w3.org/2000/svg">
<path d="M3.20833 0C2.35743 0 1.54138 0.33802 0.939699 0.939699C0.33802 1.54138 0 2.35743 0 3.20833V5.04167C0 5.94 0.3685 6.75033 0.9625 7.33333C0.3685 7.91633 0 8.72667 0 9.625V12.375C0 13.2733 0.3685 14.0837 0.9625 14.6667C0.3685 15.2497 0 16.06 0 16.9583V18.7917C0 20.5627 1.43733 22 3.20833 22H18.7917C19.6426 22 20.4586 21.662 21.0603 21.0603C21.662 20.4586 22 19.6426 22 18.7917V16.9583C22 16.06 21.6315 15.2497 21.0375 14.6667C21.6315 14.0837 22 13.2733 22 12.375V9.625C22 8.72667 21.6315 7.91633 21.0375 7.33333C21.6315 6.75033 22 5.94 22 5.04167V3.20833C22 2.35743 21.662 1.54138 21.0603 0.939699C20.4586 0.33802 19.6426 0 18.7917 0H3.20833ZM1.83333 16.9583C1.83333 16.5937 1.9782 16.2439 2.23606 15.9861C2.49392 15.7282 2.84366 15.5833 3.20833 15.5833H5.5V20.1667H3.20833C2.84366 20.1667 2.49392 20.0218 2.23606 19.7639C1.9782 19.5061 1.83333 19.1563 1.83333 18.7917V16.9583ZM7.33333 20.1667V15.5833H18.7917C19.1563 15.5833 19.5061 15.7282 19.7639 15.9861C20.0218 16.2439 20.1667 16.5937 20.1667 16.9583V18.7917C20.1667 19.1563 20.0218 19.5061 19.7639 19.7639C19.5061 20.0218 19.1563 20.1667 18.7917 20.1667H7.33333ZM7.33333 13.75V8.25H18.7917C19.1563 8.25 19.5061 8.39487 19.7639 8.65273C20.0218 8.91059 20.1667 9.26033 20.1667 9.625V12.375C20.1667 12.7397 20.0218 13.0894 19.7639 13.3473C19.5061 13.6051 19.1563 13.75 18.7917 13.75H7.33333ZM7.33333 6.41667V1.83333H18.7917C19.1563 1.83333 19.5061 1.9782 19.7639 2.23606C20.0218 2.49392 20.1667 2.84366 20.1667 3.20833V5.04167C20.1667 5.40634 20.0218 5.75608 19.7639 6.01394C19.5061 6.2718 19.1563 6.41667 18.7917 6.41667H7.33333ZM5.5 1.83333V6.41667H3.20833C2.84366 6.41667 2.49392 6.2718 2.23606 6.01394C1.9782 5.75608 1.83333 5.40634 1.83333 5.04167V3.20833C1.83333 2.84366 1.9782 2.49392 2.23606 2.23606C2.49392 1.9782 2.84366 1.83333 3.20833 1.83333H5.5ZM5.5 8.25V13.75H3.20833C2.84366 13.75 2.49392 13.6051 2.23606 13.3473C1.9782 13.0894 1.83333 12.7397 1.83333 12.375V9.625C1.83333 9.26033 1.9782 8.91059 2.23606 8.65273C2.49392 8.39487 2.84366 8.25 3.20833 8.25H5.5Z" fill="#4C3673"/>
</svg>
