<svg width="25" height="30" viewBox="0 0 25 30" fill="none" xmlns="http://www.w3.org/2000/svg">
<path d="M9.72222 27.1429H15.2778C15.2778 28.7143 14.0278 30 12.5 30C10.9722 30 9.72222 28.7143 9.72222 27.1429ZM25 24.2857V25.7143H0V24.2857L2.77778 21.4286V12.8571C2.77778 8.42857 5.55556 4.57143 9.72222 3.28571V2.85714C9.72222 1.28571 10.9722 0 12.5 0C14.0278 0 15.2778 1.28571 15.2778 2.85714V3.28571C19.4444 4.57143 22.2222 8.42857 22.2222 12.8571V21.4286L25 24.2857ZM19.4444 12.8571C19.4444 8.85714 16.3889 5.71429 12.5 5.71429C8.61111 5.71429 5.55556 8.85714 5.55556 12.8571V22.8571H19.4444V12.8571Z" fill="#4C3673"/>
</svg>
