<svg width="26" height="21" viewBox="0 0 26 21" fill="none" xmlns="http://www.w3.org/2000/svg">
<path d="M16.1579 20C16.1579 17.2007 12.7651 14.9333 8.57895 14.9333C4.39284 14.9333 1 17.2007 1 20M21.2105 16.2V12.4M21.2105 12.4V8.6M21.2105 12.4H17.4211M21.2105 12.4H25M8.57895 11.1333C7.23891 11.1333 5.95375 10.5995 5.0062 9.64934C4.05864 8.69916 3.52632 7.41043 3.52632 6.06667C3.52632 4.7229 4.05864 3.43418 5.0062 2.48399C5.95375 1.53381 7.23891 1 8.57895 1C9.91899 1 11.2041 1.53381 12.1517 2.48399C13.0992 3.43418 13.6316 4.7229 13.6316 6.06667C13.6316 7.41043 13.0992 8.69916 12.1517 9.64934C11.2041 10.5995 9.91899 11.1333 8.57895 11.1333Z" stroke="#4C3673" stroke-width="2" stroke-linecap="round" stroke-linejoin="round"/>
</svg>
