<svg width="23" height="23" viewBox="0 0 23 23" fill="none" xmlns="http://www.w3.org/2000/svg">
<path d="M11.5 10.35C13.025 10.35 14.4875 10.9558 15.5659 12.0341C16.6442 13.1125 17.25 14.575 17.25 16.1V23H14.95V16.1C14.95 15.22 14.6138 14.3733 14.0101 13.733C13.4064 13.0927 12.5809 12.7074 11.7024 12.6557L11.5 12.65C10.62 12.65 9.77326 12.9862 9.133 13.5899C8.49274 14.1936 8.10738 15.0191 8.05575 15.8976L8.05 16.1V23H5.75V16.1C5.75 14.575 6.3558 13.1125 7.43414 12.0341C8.51247 10.9558 9.97501 10.35 11.5 10.35ZM4.025 13.8C4.347 13.8008 4.6575 13.8368 4.9565 13.9081C4.7606 14.4936 4.64417 15.1028 4.61035 15.7193L4.6 16.1V16.1989C4.46779 16.1517 4.3303 16.1208 4.1906 16.1069L4.025 16.1C3.59636 16.1 3.18308 16.2596 2.86568 16.5476C2.54827 16.8357 2.34948 17.2316 2.30805 17.6582L2.3 17.825V23H0V17.825C0 16.7575 0.424061 15.7337 1.1789 14.9789C1.93373 14.2241 2.9575 13.8 4.025 13.8ZM18.975 13.8C20.0425 13.8 21.0663 14.2241 21.8211 14.9789C22.5759 15.7337 23 16.7575 23 17.825V23H20.7V17.825C20.7 17.3964 20.5404 16.9831 20.2524 16.6657C19.9643 16.3483 19.5684 16.1495 19.1418 16.108L18.975 16.1C18.7726 16.1008 18.5809 16.1333 18.4 16.1977V16.1C18.4 15.3341 18.2758 14.5981 18.0458 13.9104C18.3425 13.8379 18.6553 13.8 18.975 13.8ZM4.025 6.9C4.7875 6.9 5.51876 7.2029 6.05793 7.74207C6.5971 8.28123 6.9 9.0125 6.9 9.775C6.9 10.5375 6.5971 11.2688 6.05793 11.8079C5.51876 12.3471 4.7875 12.65 4.025 12.65C3.2625 12.65 2.53123 12.3471 1.99207 11.8079C1.4529 11.2688 1.15 10.5375 1.15 9.775C1.15 9.0125 1.4529 8.28123 1.99207 7.74207C2.53123 7.2029 3.2625 6.9 4.025 6.9ZM18.975 6.9C19.7375 6.9 20.4688 7.2029 21.0079 7.74207C21.5471 8.28123 21.85 9.0125 21.85 9.775C21.85 10.5375 21.5471 11.2688 21.0079 11.8079C20.4688 12.3471 19.7375 12.65 18.975 12.65C18.2125 12.65 17.4812 12.3471 16.9421 11.8079C16.4029 11.2688 16.1 10.5375 16.1 9.775C16.1 9.0125 16.4029 8.28123 16.9421 7.74207C17.4812 7.2029 18.2125 6.9 18.975 6.9ZM4.025 9.2C3.8725 9.2 3.72625 9.26058 3.61841 9.36841C3.51058 9.47625 3.45 9.6225 3.45 9.775C3.45 9.9275 3.51058 10.0738 3.61841 10.1816C3.72625 10.2894 3.8725 10.35 4.025 10.35C4.1775 10.35 4.32375 10.2894 4.43159 10.1816C4.53942 10.0738 4.6 9.9275 4.6 9.775C4.6 9.6225 4.53942 9.47625 4.43159 9.36841C4.32375 9.26058 4.1775 9.2 4.025 9.2ZM18.975 9.2C18.8225 9.2 18.6762 9.26058 18.5684 9.36841C18.4606 9.47625 18.4 9.6225 18.4 9.775C18.4 9.9275 18.4606 10.0738 18.5684 10.1816C18.6762 10.2894 18.8225 10.35 18.975 10.35C19.1275 10.35 19.2738 10.2894 19.3816 10.1816C19.4894 10.0738 19.55 9.9275 19.55 9.775C19.55 9.6225 19.4894 9.47625 19.3816 9.36841C19.2738 9.26058 19.1275 9.2 18.975 9.2ZM11.5 0C12.72 0 13.89 0.484641 14.7527 1.34731C15.6154 2.20998 16.1 3.38 16.1 4.6C16.1 5.82 15.6154 6.99002 14.7527 7.85269C13.89 8.71536 12.72 9.2 11.5 9.2C10.28 9.2 9.10997 8.71536 8.24731 7.85269C7.38464 6.99002 6.9 5.82 6.9 4.6C6.9 3.38 7.38464 2.20998 8.24731 1.34731C9.10997 0.484641 10.28 0 11.5 0ZM11.5 2.3C10.89 2.3 10.305 2.54232 9.87365 2.97365C9.44232 3.40499 9.2 3.99 9.2 4.6C9.2 5.21 9.44232 5.79501 9.87365 6.22635C10.305 6.65768 10.89 6.9 11.5 6.9C12.11 6.9 12.695 6.65768 13.1263 6.22635C13.5577 5.79501 13.8 5.21 13.8 4.6C13.8 3.99 13.5577 3.40499 13.1263 2.97365C12.695 2.54232 12.11 2.3 11.5 2.3Z" fill="#4C3673"/>
</svg>
