<svg width="11" height="15" viewBox="0 0 11 15" fill="none" xmlns="http://www.w3.org/2000/svg">
<path d="M5.5 14.8975C5.5 14.8975 11 9.60328 11 5.58655C11 4.1049 10.4205 2.68394 9.38909 1.63626C8.35764 0.588581 6.95869 0 5.5 0C4.04131 0 2.64236 0.588581 1.61091 1.63626C0.579463 2.68394 2.17362e-08 4.1049 0 5.58655C0 9.60328 5.5 14.8975 5.5 14.8975ZM5.5 8.37982C4.77065 8.37982 4.07118 8.08553 3.55546 7.56169C3.03973 7.03785 2.75 6.32737 2.75 5.58655C2.75 4.84573 3.03973 4.13525 3.55546 3.6114C4.07118 3.08756 4.77065 2.79327 5.5 2.79327C6.22935 2.79327 6.92882 3.08756 7.44454 3.6114C7.96027 4.13525 8.25 4.84573 8.25 5.58655C8.25 6.32737 7.96027 7.03785 7.44454 7.56169C6.92882 8.08553 6.22935 8.37982 5.5 8.37982Z" fill="white"/>
</svg>
